<?xml version="1.0" encoding="utf-8"?>
<!-- Generator: Adobe Illustrator 23.0.1, SVG Export Plug-In . SVG Version: 6.00 Build 0)  -->
<svg version="1.1" id="Layer_1" xmlns="http://www.w3.org/2000/svg" xmlns:xlink="http://www.w3.org/1999/xlink" x="0px" y="0px"
	 viewBox="0 0 22 22" style="enable-background:new 0 0 22 22;" xml:space="preserve">
<style type="text/css">
	.st0{fill:#FFFFFF;}
</style>
<path class="st0" d="M6,3c0,0-1,0-1,1H3v3v11v1h16v-1V7V4h-2c0-1-1-1-1-1h-3c0,0-1,0-1,1h-2c0-1-1-1-1-1H6z M6,4h3v1H6V4z M13,4h3v1
	h-3V4z M4,7h14v11H4V7z M6,8v2h2V8H6z M10,8v2h2V8H10z M14,8v2h2V8H14z M6,11v2h2v-2H6z M10,11v2h2v-2H10z M14,11v2h2v-2H14z M14,14
	v2h2v-2H14z"/>
</svg>
